<svg width="192" height="72" viewBox="0 0 192 72" fill="none" xmlns="http://www.w3.org/2000/svg">
<path d="M26.7727 1.18182H18.3182L0.863636 12.7727V21.3636L17.9091 10.0455H18.3182V71H26.7727V1.18182ZM64.825 71.9545C80.2341 71.9545 89.0977 58.8977 89.0977 36.0909C89.0977 13.4545 80.0977 0.22727 64.825 0.22727C49.5523 0.22727 40.5523 13.4545 40.5523 36.0909C40.5523 58.8977 49.4159 71.9545 64.825 71.9545ZM64.825 64.4545C54.6659 64.4545 48.7341 54.2614 48.7341 36.0909C48.7341 17.9545 54.7341 7.59091 64.825 7.59091C74.9159 7.59091 80.9159 17.9545 80.9159 36.0909C80.9159 54.2614 74.9841 64.4545 64.825 64.4545ZM98.4795 71H106.934V48.3636L115.661 38.5455L139.934 71H150.161L120.843 32.6818L150.161 1.18182H139.116L107.752 35.8182H106.934V1.18182H98.4795V71ZM165.262 58.7273H172.898V40.0455H191.58V32.4091H172.898V13.7273H165.262V32.4091H146.58V40.0455H165.262V58.7273Z" fill="#F9512E"/>
</svg>
