<svg width="141" height="71" viewBox="0 0 141 71" fill="none" xmlns="http://www.w3.org/2000/svg">
<path d="M26.7727 0.181816H18.3182L0.863636 11.7727V20.3636L17.9091 9.04545H18.3182V70H26.7727V0.181816ZM63.8705 70.9545C77.1659 70.9545 86.9159 61.1364 86.9159 47.7727C86.9159 34.2386 77.5068 24.3182 64.6886 24.3182C59.9841 24.3182 55.4159 25.9886 52.5523 28.2727H52.1432L54.5977 7.68182H83.7795V0.181816H47.5068L43.2795 34.5455L51.1886 35.5C54.0864 33.4205 59.0295 31.9205 63.325 31.9545C72.2227 32.0227 78.7341 38.7727 78.7341 47.9091C78.7341 56.875 72.4614 63.4545 63.8705 63.4545C56.7114 63.4545 51.0182 58.8523 50.3705 52.5455H42.1886C42.7 63.1818 51.8705 70.9545 63.8705 70.9545ZM117.477 70.9545C130.772 70.9545 140.522 61.1364 140.522 47.7727C140.522 34.2386 131.113 24.3182 118.295 24.3182C113.59 24.3182 109.022 25.9886 106.159 28.2727H105.749L108.204 7.68182H137.386V0.181816H101.113L96.8858 34.5455L104.795 35.5C107.693 33.4205 112.636 31.9205 116.931 31.9545C125.829 32.0227 132.34 38.7727 132.34 47.9091C132.34 56.875 126.068 63.4545 117.477 63.4545C110.318 63.4545 104.624 58.8523 103.977 52.5455H95.7949C96.3063 63.1818 105.477 70.9545 117.477 70.9545Z" fill="#F9512E"/>
</svg>
