<svg width="194" height="72" viewBox="0 0 194 72" fill="none" xmlns="http://www.w3.org/2000/svg">
<path d="M0.227273 71H44.2727V63.5H11.8182V62.9545L27.5 46.1818C39.5 33.3295 43.0455 27.3295 43.0455 19.5909C43.0455 8.81818 34.3182 0.22727 22.0455 0.22727C9.80682 0.22727 0.5 8.54545 0.5 20.8182H8.54546C8.54546 12.875 13.6932 7.59091 21.7727 7.59091C29.3409 7.59091 35.1364 12.2273 35.1364 19.5909C35.1364 26.0341 31.3523 30.8068 23.2727 39.6364L0.227273 64.8636V71ZM76.325 71.9545C91.7341 71.9545 100.598 58.8977 100.598 36.0909C100.598 13.4545 91.5977 0.22727 76.325 0.22727C61.0523 0.22727 52.0523 13.4545 52.0523 36.0909C52.0523 58.8977 60.9159 71.9545 76.325 71.9545ZM76.325 64.4545C66.1659 64.4545 60.2341 54.2614 60.2341 36.0909C60.2341 17.9545 66.2341 7.59091 76.325 7.59091C86.4159 7.59091 92.4159 17.9545 92.4159 36.0909C92.4159 54.2614 86.4841 64.4545 76.325 64.4545ZM133.298 1.18182H124.843L107.389 12.7727V21.3636L124.434 10.0455H124.843V71H133.298V1.18182ZM170.395 71.9545C183.691 71.9545 193.441 62.1364 193.441 48.7727C193.441 35.2386 184.032 25.3182 171.214 25.3182C166.509 25.3182 161.941 26.9886 159.077 29.2727H158.668L161.123 8.68182H190.305V1.18182H154.032L149.805 35.5455L157.714 36.5C160.611 34.4205 165.555 32.9205 169.85 32.9545C178.748 33.0227 185.259 39.7727 185.259 48.9091C185.259 57.875 178.986 64.4545 170.395 64.4545C163.236 64.4545 157.543 59.8523 156.895 53.5455H148.714C149.225 64.1818 158.395 71.9545 170.395 71.9545Z" fill="#F9512E"/>
</svg>
