<svg width="101" height="72" viewBox="0 0 101 72" fill="none" xmlns="http://www.w3.org/2000/svg">
<path d="M0.227273 71H44.2727V63.5H11.8182V62.9545L27.5 46.1818C39.5 33.3295 43.0455 27.3295 43.0455 19.5909C43.0455 8.81818 34.3182 0.22727 22.0455 0.22727C9.80682 0.22727 0.5 8.54545 0.5 20.8182H8.54546C8.54546 12.875 13.6932 7.59091 21.7727 7.59091C29.3409 7.59091 35.1364 12.2273 35.1364 19.5909C35.1364 26.0341 31.3523 30.8068 23.2727 39.6364L0.227273 64.8636V71ZM77.1432 71.9545C90.6773 71.9545 100.734 63.4659 100.734 52.0455C100.734 43.1818 95.4841 36.7386 86.6886 35.2727V34.7273C93.7455 32.5795 98.1432 26.7841 98.1432 18.9091C98.1432 9.02272 90.3364 0.22727 77.4159 0.22727C65.3477 0.22727 55.325 7.65909 54.9159 18.6364H63.0977C63.4045 11.6818 70.0182 7.59091 77.2795 7.59091C84.9841 7.59091 89.9614 12.2614 89.9614 19.3182C89.9614 26.6818 84.2 31.4545 75.9159 31.4545H70.325V38.9545H75.9159C86.5182 38.9545 92.4159 44.3409 92.4159 52.0455C92.4159 59.4432 85.9727 64.4545 77.0068 64.4545C68.9273 64.4545 62.5182 60.2955 62.0068 53.5455H53.4159C53.9273 64.5227 63.6091 71.9545 77.1432 71.9545Z" fill="#F9512E"/>
</svg>
