<svg width="315" height="91" viewBox="0 0 315 91" fill="none" xmlns="http://www.w3.org/2000/svg">
<path d="M3.93182 42H8.86364V23.7841H26.5227V19.4091H8.86364V5.64773H28.3523V1.27273H3.93182V42ZM33.999 42H58.8967V37.625H38.9308V23.7841H57.3058V19.4091H38.9308V5.64773H58.5786V1.27273H33.999V42ZM72.0655 42H77.1564L86.145 9.54545H86.4632L95.4518 42H100.543L111.679 1.27273H106.668L98.1564 34.4432H97.7587L89.0882 1.27273H83.52L74.8496 34.4432H74.4518L65.9405 1.27273H60.9291L72.0655 42ZM135.372 42H140.463L149.451 9.54545H149.769L158.758 42H163.849L174.985 1.27273H169.974L161.463 34.4432H161.065L152.394 1.27273H146.826L138.156 34.4432H137.758L129.247 1.27273H124.235L135.372 42ZM210.78 21.6364C210.78 8.75 203.223 0.715908 192.803 0.715908C182.382 0.715908 174.825 8.75 174.825 21.6364C174.825 34.5227 182.382 42.5568 192.803 42.5568C203.223 42.5568 210.78 34.5227 210.78 21.6364ZM206.007 21.6364C206.007 32.2159 200.2 37.9432 192.803 37.9432C185.405 37.9432 179.598 32.2159 179.598 21.6364C179.598 11.0568 185.405 5.32954 192.803 5.32954C200.2 5.32954 206.007 11.0568 206.007 21.6364ZM216.272 42H221.204V26.0909H230.113C230.471 26.0909 230.809 26.0909 231.147 26.071L239.738 42H245.466L236.258 25.1761C241.449 23.4062 243.875 19.1705 243.875 13.7614C243.875 6.5625 239.579 1.27273 230.034 1.27273H216.272V42ZM221.204 21.6364V5.64773H229.875C236.477 5.64773 239.022 8.86932 239.022 13.7614C239.022 18.6534 236.477 21.6364 229.954 21.6364H221.204ZM261.861 42C274.27 42 281.27 34.2841 281.27 21.5568C281.27 8.90909 274.27 1.27273 262.418 1.27273H249.293V42H261.861ZM254.225 37.625V5.64773H262.1C271.645 5.64773 276.497 11.6932 276.497 21.5568C276.497 31.5 271.645 37.625 261.543 37.625H254.225ZM309.015 11.4545H313.788C313.569 5.30966 307.902 0.715908 300.027 0.715908C292.231 0.715908 286.106 5.25 286.106 12.0909C286.106 17.5795 290.084 20.8409 296.447 22.6705L301.459 24.1023C305.754 25.2955 309.572 26.8068 309.572 30.8636C309.572 35.3182 305.277 38.2614 299.629 38.2614C294.777 38.2614 290.481 36.1136 290.084 31.5H284.993C285.47 38.1818 290.879 42.7159 299.629 42.7159C309.015 42.7159 314.345 37.5455 314.345 30.9432C314.345 23.3068 307.106 20.8409 302.89 19.7273L298.754 18.6136C295.731 17.8182 290.879 16.2273 290.879 11.8523C290.879 7.95454 294.459 5.09091 299.868 5.09091C304.8 5.09091 308.538 7.4375 309.015 11.4545ZM5.60227 90L9.69886 78.4659H26.1648L30.2614 90H35.4318L20.4773 49.2727H15.3864L0.431818 90H5.60227ZM11.25 74.0909L17.7727 55.7159H18.0909L24.6136 74.0909H11.25ZM38.9756 90H53.6915C63.3165 90 67.2938 85.3068 67.2938 79.1818C67.2938 72.7386 62.8392 69.2386 59.1006 69V68.6023C62.6006 67.6477 65.7028 65.3409 65.7028 60.0909C65.7028 54.125 61.7256 49.2727 53.2142 49.2727H38.9756V90ZM43.9074 85.625V71.4659H53.9301C59.2597 71.4659 62.6006 75.0455 62.6006 79.1818C62.6006 82.7614 60.1347 85.625 53.6915 85.625H43.9074ZM43.9074 67.1705V53.6477H53.2142C58.6233 53.6477 61.0097 56.5114 61.0097 60.0909C61.0097 64.3864 57.5097 67.1705 53.0551 67.1705H43.9074ZM106.961 69.6364C106.961 56.75 99.4043 48.7159 88.9838 48.7159C78.5634 48.7159 71.0065 56.75 71.0065 69.6364C71.0065 82.5227 78.5634 90.5568 88.9838 90.5568C99.4043 90.5568 106.961 82.5227 106.961 69.6364ZM102.188 69.6364C102.188 80.2159 96.3815 85.9432 88.9838 85.9432C81.5861 85.9432 75.7793 80.2159 75.7793 69.6364C75.7793 59.0568 81.5861 53.3295 88.9838 53.3295C96.3815 53.3295 102.188 59.0568 102.188 69.6364ZM139.181 49.2727V75.8409C139.181 81.8068 135.084 86.1023 128.283 86.1023C121.482 86.1023 117.386 81.8068 117.386 75.8409V49.2727H112.454V76.2386C112.454 84.5909 118.698 90.7159 128.283 90.7159C137.868 90.7159 144.113 84.5909 144.113 76.2386V49.2727H139.181ZM148.934 53.6477H161.741V90H166.673V53.6477H179.48V49.2727H148.934V53.6477ZM223.968 49.2727V75.8409C223.968 81.8068 219.872 86.1023 213.071 86.1023C206.27 86.1023 202.173 81.8068 202.173 75.8409V49.2727H197.241V76.2386C197.241 84.5909 203.486 90.7159 213.071 90.7159C222.656 90.7159 228.9 84.5909 228.9 76.2386V49.2727H223.968ZM258.222 59.4545H262.994C262.776 53.3097 257.108 48.7159 249.233 48.7159C241.438 48.7159 235.313 53.25 235.313 60.0909C235.313 65.5795 239.29 68.8409 245.654 70.6705L250.665 72.1023C254.96 73.2955 258.779 74.8068 258.779 78.8636C258.779 83.3182 254.483 86.2614 248.835 86.2614C243.983 86.2614 239.688 84.1136 239.29 79.5H234.199C234.676 86.1818 240.085 90.7159 248.835 90.7159C258.222 90.7159 263.551 85.5455 263.551 78.9432C263.551 71.3068 256.313 68.8409 252.097 67.7273L247.96 66.6136C244.938 65.8182 240.085 64.2273 240.085 59.8523C240.085 55.9545 243.665 53.0909 249.074 53.0909C254.006 53.0909 257.744 55.4375 258.222 59.4545Z" fill="#F9512E"/>
</svg>
